<svg aria-hidden="true" style="position: absolute; width: 0; height: 0; overflow: hidden;" version="1.1" xmlns="http://www.w3.org/2000/svg" xmlns:xlink="http://www.w3.org/1999/xlink">
<defs>

<!-- user -->
<symbol id="icon-user" viewBox="0 0 30 32">
    <path d="M15.238 16c4.208 0 7.619-3.411 7.619-7.619s-3.411-7.619-7.619-7.619c-4.208 0-7.619 3.411-7.619 7.619s3.411 7.619 7.619 7.619z"></path>
    <path d="M20.372 18.54h-10.268c-1.669 0.002-3.269 0.666-4.449 1.846s-1.844 2.78-1.846 4.449v1.832c0 2.525 2.047 4.571 4.571 4.571h13.714c2.525 0 4.571-2.047 4.571-4.571v-1.832c-0.002-1.669-0.666-3.269-1.846-4.449s-2.78-1.844-4.449-1.846z"></path>
</symbol>

<!-- arrow -->
<symbol id="icon-arrowRight" viewBox="0 0 32 32">
    <path d="M24.357 13.367l-4.781-4.781c-0.375-0.375-0.884-0.586-1.414-0.585s-1.039 0.211-1.414 0.586c-0.375 0.375-0.586 0.884-0.585 1.414s0.211 1.039 0.586 1.414l3.252 3.252h-11.724c-0.53 0-1.039 0.211-1.414 0.586s-0.586 0.884-0.586 1.414c0 0.531 0.211 1.039 0.586 1.414s0.884 0.586 1.414 0.586h11.724l-3.252 3.252c-0.375 0.375-0.586 0.884-0.586 1.414s0.211 1.039 0.585 1.414c0.375 0.375 0.884 0.586 1.414 0.586s1.039-0.211 1.414-0.586l4.781-4.781c0.874-0.876 1.364-2.063 1.364-3.3s-0.491-2.424-1.364-3.3z"></path>
</symbol>

<!-- social Icon Telegram / facebook / twitter / mailer / linkedin / tiktok / youTube / whatsapp / calendly -->
<symbol id="icon-telegram" viewBox="0 0 28 28">
<path d="M18.578 20.422l2.297-10.828c0.203-0.953-0.344-1.328-0.969-1.094l-13.5 5.203c-0.922 0.359-0.906 0.875-0.156 1.109l3.453 1.078 8.016-5.047c0.375-0.25 0.719-0.109 0.438 0.141l-6.484 5.859-0.25 3.563c0.359 0 0.516-0.156 0.703-0.344l1.687-1.625 3.5 2.578c0.641 0.359 1.094 0.172 1.266-0.594zM28 14c0 7.734-6.266 14-14 14s-14-6.266-14-14 6.266-14 14-14 14 6.266 14 14z"></path>
</symbol>

<symbol id="icon-twitter" viewBox="0 0 32 32">
<path d="M32 7.075c-1.175 0.525-2.444 0.875-3.769 1.031 1.356-0.813 2.394-2.1 2.887-3.631-1.269 0.75-2.675 1.3-4.169 1.594-1.2-1.275-2.906-2.069-4.794-2.069-3.625 0-6.563 2.938-6.563 6.563 0 0.512 0.056 1.012 0.169 1.494-5.456-0.275-10.294-2.888-13.531-6.862-0.563 0.969-0.887 2.1-0.887 3.3 0 2.275 1.156 4.287 2.919 5.463-1.075-0.031-2.087-0.331-2.975-0.819 0 0.025 0 0.056 0 0.081 0 3.181 2.263 5.838 5.269 6.437-0.55 0.15-1.131 0.231-1.731 0.231-0.425 0-0.831-0.044-1.237-0.119 0.838 2.606 3.263 4.506 6.131 4.563-2.25 1.762-5.075 2.813-8.156 2.813-0.531 0-1.050-0.031-1.569-0.094 2.913 1.869 6.362 2.95 10.069 2.95 12.075 0 18.681-10.006 18.681-18.681 0-0.287-0.006-0.569-0.019-0.85 1.281-0.919 2.394-2.075 3.275-3.394z"></path>
</symbol>

<symbol id="icon-twitter2" viewBox="0 0 32 32">
<path d="M24.325 3h4.411l-9.636 11.013 11.336 14.987h-8.876l-6.952-9.089-7.955 9.089h-4.413l10.307-11.78-10.875-14.22h9.101l6.284 8.308zM22.777 26.36h2.444l-15.776-20.859h-2.623z"></path>
</symbol>

<symbol id="icon-facebook" viewBox="0 0 32 32">
<path d="M19 6h5v-6h-5c-3.86 0-7 3.14-7 7v3h-4v6h4v16h6v-16h5l1-6h-6v-3c0-0.542 0.458-1 1-1z"></path>
</symbol>

<symbol id="icon-instagram" viewBox="0 0 32 32">
<path d="M16 2.881c4.275 0 4.781 0.019 6.462 0.094 1.563 0.069 2.406 0.331 2.969 0.55 0.744 0.288 1.281 0.638 1.837 1.194 0.563 0.563 0.906 1.094 1.2 1.838 0.219 0.563 0.481 1.412 0.55 2.969 0.075 1.688 0.094 2.194 0.094 6.463s-0.019 4.781-0.094 6.463c-0.069 1.563-0.331 2.406-0.55 2.969-0.288 0.744-0.637 1.281-1.194 1.837-0.563 0.563-1.094 0.906-1.837 1.2-0.563 0.219-1.413 0.481-2.969 0.55-1.688 0.075-2.194 0.094-6.463 0.094s-4.781-0.019-6.463-0.094c-1.563-0.069-2.406-0.331-2.969-0.55-0.744-0.288-1.281-0.637-1.838-1.194-0.563-0.563-0.906-1.094-1.2-1.837-0.219-0.563-0.481-1.413-0.55-2.969-0.075-1.688-0.094-2.194-0.094-6.463s0.019-4.781 0.094-6.463c0.069-1.563 0.331-2.406 0.55-2.969 0.288-0.744 0.638-1.281 1.194-1.838 0.563-0.563 1.094-0.906 1.838-1.2 0.563-0.219 1.412-0.481 2.969-0.55 1.681-0.075 2.188-0.094 6.463-0.094zM16 0c-4.344 0-4.887 0.019-6.594 0.094-1.7 0.075-2.869 0.35-3.881 0.744-1.056 0.412-1.95 0.956-2.837 1.85-0.894 0.888-1.438 1.781-1.85 2.831-0.394 1.019-0.669 2.181-0.744 3.881-0.075 1.713-0.094 2.256-0.094 6.6s0.019 4.887 0.094 6.594c0.075 1.7 0.35 2.869 0.744 3.881 0.413 1.056 0.956 1.95 1.85 2.837 0.887 0.887 1.781 1.438 2.831 1.844 1.019 0.394 2.181 0.669 3.881 0.744 1.706 0.075 2.25 0.094 6.594 0.094s4.888-0.019 6.594-0.094c1.7-0.075 2.869-0.35 3.881-0.744 1.050-0.406 1.944-0.956 2.831-1.844s1.438-1.781 1.844-2.831c0.394-1.019 0.669-2.181 0.744-3.881 0.075-1.706 0.094-2.25 0.094-6.594s-0.019-4.887-0.094-6.594c-0.075-1.7-0.35-2.869-0.744-3.881-0.394-1.063-0.938-1.956-1.831-2.844-0.887-0.887-1.781-1.438-2.831-1.844-1.019-0.394-2.181-0.669-3.881-0.744-1.712-0.081-2.256-0.1-6.6-0.1v0z"></path>
<path d="M16 7.781c-4.537 0-8.219 3.681-8.219 8.219s3.681 8.219 8.219 8.219 8.219-3.681 8.219-8.219c0-4.537-3.681-8.219-8.219-8.219zM16 21.331c-2.944 0-5.331-2.387-5.331-5.331s2.387-5.331 5.331-5.331c2.944 0 5.331 2.387 5.331 5.331s-2.387 5.331-5.331 5.331z"></path>
<path d="M26.462 7.456c0 1.060-0.859 1.919-1.919 1.919s-1.919-0.859-1.919-1.919c0-1.060 0.859-1.919 1.919-1.919s1.919 0.859 1.919 1.919z"></path>
</symbol>

<symbol id="icon-linkedin" viewBox="0 0 32 32">
    <path d="M31.992 32v-0.001h0.008v-11.736c0-5.741-1.236-10.164-7.948-10.164-3.227 0-5.392 1.771-6.276 3.449h-0.093v-2.913h-6.364v21.364h6.627v-10.579c0-2.785 0.528-5.479 3.977-5.479 3.399 0 3.449 3.179 3.449 5.657v10.401h6.62z"></path>
    <path d="M0.528 10.636h6.635v21.364h-6.635v-21.364z"></path>
    <path d="M3.843 0c-2.121 0-3.843 1.721-3.843 3.843s1.721 3.879 3.843 3.879c2.121 0 3.843-1.757 3.843-3.879-0.001-2.121-1.723-3.843-3.843-3.843v0z"></path>
</symbol>

<symbol id="icon-tiktok" viewBox="0 0 32 32">
    <path d="M16.707 0.027c1.747-0.027 3.48-0.013 5.213-0.027 0.107 2.040 0.84 4.12 2.333 5.56 1.493 1.48 3.6 2.16 5.653 2.387v5.373c-1.92-0.067-3.853-0.467-5.6-1.293-0.76-0.347-1.467-0.787-2.16-1.24-0.013 3.893 0.013 7.787-0.027 11.667-0.107 1.867-0.72 3.72-1.8 5.253-1.747 2.56-4.773 4.227-7.88 4.28-1.907 0.107-3.813-0.413-5.44-1.373-2.693-1.587-4.587-4.493-4.867-7.613-0.027-0.667-0.040-1.333-0.013-1.987 0.24-2.533 1.493-4.96 3.44-6.613 2.213-1.92 5.307-2.84 8.2-2.293 0.027 1.973-0.053 3.947-0.053 5.92-1.32-0.427-2.867-0.307-4.027 0.493-0.84 0.547-1.48 1.387-1.813 2.333-0.28 0.68-0.2 1.427-0.187 2.147 0.32 2.187 2.427 4.027 4.667 3.827 1.493-0.013 2.92-0.88 3.693-2.147 0.253-0.44 0.533-0.893 0.547-1.413 0.133-2.387 0.080-4.76 0.093-7.147 0.013-5.373-0.013-10.733 0.027-16.093z"></path>
</symbol>

<symbol id="icon-youtube" viewBox="0 0 32 32">
    <path d="M31.681 9.6c0 0-0.313-2.206-1.275-3.175-1.219-1.275-2.581-1.281-3.206-1.356-4.475-0.325-11.194-0.325-11.194-0.325h-0.012c0 0-6.719 0-11.194 0.325-0.625 0.075-1.987 0.081-3.206 1.356-0.963 0.969-1.269 3.175-1.269 3.175s-0.319 2.588-0.319 5.181v2.425c0 2.587 0.319 5.181 0.319 5.181s0.313 2.206 1.269 3.175c1.219 1.275 2.819 1.231 3.531 1.369 2.563 0.244 10.881 0.319 10.881 0.319s6.725-0.012 11.2-0.331c0.625-0.075 1.988-0.081 3.206-1.356 0.962-0.969 1.275-3.175 1.275-3.175s0.319-2.587 0.319-5.181v-2.425c-0.006-2.588-0.325-5.181-0.325-5.181zM12.694 20.15v-8.994l8.644 4.513-8.644 4.481z"></path>
</symbol>

<symbol id="icon-whatsapp" viewBox="0 0 32 32">
    <path d="M27.281 4.65c-2.994-3-6.975-4.65-11.219-4.65-8.738 0-15.85 7.112-15.85 15.856 0 2.794 0.731 5.525 2.119 7.925l-2.25 8.219 8.406-2.206c2.319 1.262 4.925 1.931 7.575 1.931h0.006c0 0 0 0 0 0 8.738 0 15.856-7.113 15.856-15.856 0-4.238-1.65-8.219-4.644-11.219zM16.069 29.050v0c-2.369 0-4.688-0.637-6.713-1.837l-0.481-0.288-4.987 1.306 1.331-4.863-0.313-0.5c-1.325-2.094-2.019-4.519-2.019-7.012 0-7.269 5.912-13.181 13.188-13.181 3.519 0 6.831 1.375 9.319 3.862 2.488 2.494 3.856 5.8 3.856 9.325-0.006 7.275-5.919 13.188-13.181 13.188zM23.294 19.175c-0.394-0.2-2.344-1.156-2.706-1.288s-0.625-0.2-0.894 0.2c-0.262 0.394-1.025 1.288-1.256 1.556-0.231 0.262-0.462 0.3-0.856 0.1s-1.675-0.619-3.188-1.969c-1.175-1.050-1.975-2.35-2.206-2.744s-0.025-0.613 0.175-0.806c0.181-0.175 0.394-0.463 0.594-0.694s0.262-0.394 0.394-0.662c0.131-0.262 0.069-0.494-0.031-0.694s-0.894-2.15-1.219-2.944c-0.319-0.775-0.65-0.669-0.894-0.681-0.231-0.012-0.494-0.012-0.756-0.012s-0.694 0.1-1.056 0.494c-0.363 0.394-1.387 1.356-1.387 3.306s1.419 3.831 1.619 4.1c0.2 0.262 2.794 4.269 6.769 5.981 0.944 0.406 1.681 0.65 2.256 0.837 0.95 0.3 1.813 0.256 2.494 0.156 0.762-0.113 2.344-0.956 2.675-1.881s0.331-1.719 0.231-1.881c-0.094-0.175-0.356-0.275-0.756-0.475z"></path>
</symbol>

<symbol id="icon-calendly" viewBox="0 0 32 32">
    <path d="M26.215 14.632c-0.465 0.085-0.937 0.128-1.41 0.128-2.754 0-3.91-1.025-4.947-1.944-0.844-0.748-1.61-1.427-3.093-1.427h-1.233c-2.27 0-3.761 1.621-3.761 3.695v1.69c0 2.076 1.491 3.697 3.761 3.697h1.233c1.484 0 2.249-0.679 3.093-1.427 1.037-0.92 2.194-1.945 4.947-1.945 0.116 0 0.23-0.001 0.345-0.003 0.357-0.004 0.714-0.008 1.088 0.026zM26.238 17.122c1.030 0.35 2.251 0.896 2.85 1.336 0.817 0.606 0.659 1.288 0.535 1.694-1.011 3.279-3.166 6.084-6.069 7.91-2.904 1.824-6.368 2.547-9.76 2.037-3.392-0.512-6.487-2.223-8.725-4.824-2.238-2.598-3.469-5.916-3.469-9.346s1.231-6.748 3.469-9.346c2.238-2.601 5.333-4.311 8.725-4.823 3.392-0.51 6.856 0.213 9.76 2.037 2.903 1.826 5.058 4.631 6.069 7.91 0.124 0.405 0.282 1.088-0.535 1.694-0.851 0.623-1.833 1.043-2.869 1.231v-0.023h-0.004c-0.090-0.497-0.228-0.986-0.416-1.455 0.913-0.271 1.935-0.655 2.377-0.975-0.004-0.006-0.009-0.015-0.009-0.021-0.902-2.925-2.825-5.427-5.414-7.055-2.592-1.628-5.681-2.27-8.706-1.813-3.027 0.457-5.788 1.982-7.785 4.303-1.995 2.319-3.093 5.278-3.093 8.337s1.099 6.018 3.093 8.337c1.997 2.321 4.757 3.846 7.785 4.303 3.025 0.456 6.114-0.186 8.706-1.813 2.59-1.628 4.512-4.13 5.414-7.055 0.004-0.006 0.009-0.015 0.009-0.021-0.702-0.51-1.515-0.845-2.372-0.977h-0.002c-0 0-0.001 0.001-0.001 0.001 0.17-0.428 0.411-1.466 0.437-1.578 0-0.002 0.001-0.002 0.001-0.004 0 0 0-0 0 0z"></path>
    <path d="M25.799 18.707c-0.326-0.053-0.659-0.079-0.99-0.079-2.164 0-2.983 0.723-3.922 1.551l-0.010 0.008-0.003 0.003c-0.91 0.806-2.043 1.809-4.104 1.809h-1.233c-1.491 0-2.846-0.542-3.816-1.523-0.947-0.96-1.47-2.274-1.47-3.699v-1.685c0-1.425 0.523-2.739 1.47-3.699 0.969-0.981 2.325-1.523 3.816-1.523h1.233c2.063 0 3.196 1.003 4.107 1.811l0.001 0.001c0.943 0.836 1.758 1.559 3.931 1.559 0.333 0 0.664-0.030 0.99-0.083v-0.002l-0.009-0.017c-0.13-0.322-0.282-0.638-0.456-0.939l-1.453-2.517c-0.655-1.133-1.596-2.076-2.731-2.731s-2.421-1.001-3.731-1.001h-2.908c-1.31 0-2.596 0.346-3.731 1.001-1.133 0.655-2.076 1.598-2.731 2.731l-1.453 2.517c-0.655 1.135-1.001 2.421-1.001 3.731s0.346 2.596 1.001 3.731l1.453 2.517c0.655 1.133 1.598 2.076 2.731 2.731 1.135 0.655 2.421 1.001 3.731 1.001h2.908c1.31 0 2.596-0.346 3.731-1.001s2.076-1.598 2.731-2.731l1.453-2.513c0.175-0.301 0.326-0.617 0.456-0.939l0.009-0.019z"></path>
</symbol>

<!-- iconClose -->
<symbol id="icon-close" viewBox="0 0 32 32">
    <path d="M4.687 4.686c-0.783 0.783-0.783 2.046 0 2.828l19.799 19.799c0.782 0.783 2.046 0.783 2.828 0s0.782-2.046 0-2.828l-19.799-19.799c-0.783-0.783-2.046-0.783-2.828 0z"></path>
    <path d="M27.315 4.686c0.782 0.783 0.782 2.046 0 2.828l-19.799 19.799c-0.783 0.783-2.046 0.783-2.828 0s-0.783-2.046 0-2.828l19.799-19.799c0.783-0.783 2.046-0.783 2.829 0z"></path>
</symbol>

<!-- burgerMenu -->
<symbol id="icon-burger-menu" viewBox="0 0 32 32">
    <path d="M4.799 8.001c0-0.424 0.169-0.831 0.469-1.131s0.707-0.469 1.131-0.469h19.2c0.424 0 0.831 0.169 1.131 0.469s0.469 0.707 0.469 1.131-0.169 0.831-0.469 1.131c-0.3 0.3-0.707 0.469-1.131 0.469h-19.2c-0.424 0-0.831-0.169-1.131-0.469s-0.469-0.707-0.469-1.131z"></path>
    <path d="M4.799 16.001c0-0.424 0.169-0.831 0.469-1.131s0.707-0.469 1.131-0.469h19.2c0.424 0 0.831 0.169 1.131 0.469s0.469 0.707 0.469 1.131c0 0.424-0.169 0.831-0.469 1.131s-0.707 0.469-1.131 0.469h-19.2c-0.424 0-0.831-0.169-1.131-0.469s-0.469-0.707-0.469-1.131z"></path>
    <path d="M4.799 24.001c0-0.424 0.169-0.831 0.469-1.131s0.707-0.469 1.131-0.469h19.2c0.424 0 0.831 0.169 1.131 0.469s0.469 0.707 0.469 1.131c0 0.424-0.169 0.831-0.469 1.131s-0.707 0.469-1.131 0.469h-19.2c-0.424 0-0.831-0.169-1.131-0.469s-0.469-0.707-0.469-1.131z"></path>
</symbol>

<!-- Star -->
<symbol id="icon-star" viewBox="0 0 32 32">
    <path d="M32 12.408l-11.056-1.607-4.944-10.018-4.944 10.018-11.056 1.607 8 7.798-1.889 11.011 9.889-5.199 9.889 5.199-1.889-11.011 8-7.798zM16 23.547l-6.983 3.671 1.334-7.776-5.65-5.507 7.808-1.134 3.492-7.075 3.492 7.075 7.807 1.134-5.65 5.507 1.334 7.776-6.983-3.671z"></path>
</symbol>
<symbol id="icon-star-fill" viewBox="0 0 32 32">
    <path d="M22.626 19.941l-0.010-0.006-0.066 0.053 0.094 0.014c0 0 4.052 10.204 3.203 11.683-1.669 1.265-8.842-5.595-9.774-6.501l0.006 0.035c0 0-8.059 8.048-9.925 6.609-1.118-0.812 2.947-12.030 2.947-12.030l0.019-0.003c-1.493-0.853-9.693-6.646-9.087-8.731 0.018-1.255 11.414-1.168 11.777-1.119 0.044-0.255 1.997-9.945 4.191-9.945 2.205 0 4.1 9.918 4.123 10.056h0.006l0.002 0.010 0.025-0.053c0 0 11.793-0.181 11.811 1.051 0.668 2.293-9.342 8.877-9.342 8.877z"></path>
</symbol>

<!-- geometry -->
<symbol id="icon-squad" viewBox="0 0 32 32">
    <path d="M25.799 18.707c-0.326-0.053-0.659-0.079-0.99-0.079-2.164 0-2.983 0.723-3.922 1.551l-0.010 0.008-0.003 0.003c-0.91 0.806-2.043 1.809-4.104 1.809h-1.233c-1.491 0-2.846-0.542-3.816-1.523-0.947-0.96-1.47-2.274-1.47-3.699v-1.685c0-1.425 0.523-2.739 1.47-3.699 0.969-0.981 2.325-1.523 3.816-1.523h1.233c2.063 0 3.196 1.003 4.107 1.811l0.001 0.001c0.943 0.836 1.758 1.559 3.931 1.559 0.333 0 0.664-0.030 0.99-0.083v-0.002l-0.009-0.017c-0.13-0.322-0.282-0.638-0.456-0.939l-1.453-2.517c-0.655-1.133-1.596-2.076-2.731-2.731s-2.421-1.001-3.731-1.001h-2.908c-1.31 0-2.596 0.346-3.731 1.001-1.133 0.655-2.076 1.598-2.731 2.731l-1.453 2.517c-0.655 1.135-1.001 2.421-1.001 3.731s0.346 2.596 1.001 3.731l1.453 2.517c0.655 1.133 1.598 2.076 2.731 2.731 1.135 0.655 2.421 1.001 3.731 1.001h2.908c1.31 0 2.596-0.346 3.731-1.001s2.076-1.598 2.731-2.731l1.453-2.513c0.175-0.301 0.326-0.617 0.456-0.939l0.009-0.019z"></path>
</symbol>

<!-- Camera / Photo / Phone -->
<symbol id="icon-camera" viewBox="0 0 32 32">
    <path d="M21 17c0 1.326-0.527 2.598-1.464 3.536s-2.209 1.464-3.536 1.464-2.598-0.527-3.536-1.464c-0.938-0.938-1.464-2.21-1.464-3.536s0.527-2.598 1.464-3.536c0.938-0.938 2.209-1.464 3.536-1.464s2.598 0.527 3.536 1.464c0.938 0.938 1.464 2.209 1.464 3.536z"></path>
    <path d="M4 8c-1.061 0-2.078 0.421-2.828 1.172s-1.172 1.768-1.172 2.828v12c0 1.061 0.421 2.078 1.172 2.828s1.768 1.172 2.828 1.172h24c1.061 0 2.078-0.421 2.828-1.172s1.172-1.768 1.172-2.828v-12c0-1.061-0.421-2.078-1.172-2.828s-1.768-1.172-2.828-1.172h-2.344c-1.061-0-2.078-0.422-2.828-1.172l-1.656-1.656c-0.75-0.75-1.767-1.172-2.828-1.172h-4.688c-1.061 0-2.078 0.422-2.828 1.172l-1.656 1.656c-0.75 0.75-1.767 1.172-2.828 1.172h-2.344zM5 12c-0.265 0-0.52-0.105-0.707-0.293s-0.293-0.442-0.293-0.707c0-0.265 0.105-0.52 0.293-0.707s0.442-0.293 0.707-0.293c0.265 0 0.52 0.105 0.707 0.293s0.293 0.442 0.293 0.707c0 0.265-0.105 0.52-0.293 0.707s-0.442 0.293-0.707 0.293zM23 17c0 1.857-0.737 3.637-2.050 4.95s-3.093 2.050-4.95 2.050c-1.857 0-3.637-0.737-4.95-2.050s-2.050-3.093-2.050-4.95c0-1.857 0.738-3.637 2.050-4.95s3.093-2.050 4.95-2.050c1.857 0 3.637 0.738 4.95 2.050s2.050 3.093 2.050 4.95z"></path>
</symbol>

<symbol id="icon-phone" viewBox="0 0 24 32">
    <path d="M19.635 18.487l-2.451-0.28c-0.589-0.067-1.167 0.135-1.582 0.55l-1.775 1.775c-2.731-1.389-4.969-3.618-6.359-6.359l1.785-1.785c0.415-0.415 0.618-0.994 0.55-1.582l-0.28-2.432c-0.116-0.975-0.936-1.708-1.92-1.708h-1.669c-1.090 0-1.997 0.907-1.93 1.997 0.511 8.24 7.102 14.821 15.332 15.332 1.090 0.068 1.997-0.839 1.997-1.93v-1.669c0.010-0.975-0.724-1.795-1.698-1.911z"></path>
</symbol>

<!-- mail / send -->
<symbol id="icon-mail" viewBox="0 0 24 32">
    <path d="M20 8h-16c-1.1 0-1.99 0.9-1.99 2l-0.010 12c0 1.1 0.9 2 2 2h16c1.1 0 2-0.9 2-2v-12c0-1.1-0.9-2-2-2zM19.6 12.25l-7.070 4.42c-0.32 0.2-0.74 0.2-1.060 0l-7.070-4.42c-0.25-0.16-0.4-0.43-0.4-0.72 0-0.67 0.73-1.070 1.3-0.72l6.7 4.19 6.7-4.19c0.57-0.35 1.3 0.050 1.3 0.72 0 0.29-0.15 0.56-0.4 0.72z"></path>
</symbol>

<symbol id="icon-send" viewBox="0 0 32 32">
    <path d="M32 2.667l-32 15 10.227 3.156 15.773-12.323-11.998 13.488 0.010 0.003-0.012-0.003v7.345l5.735-5.576 7.265 2.242 5-23.333z"></path>
</symbol>

<!-- checkbox -->
<symbol id="icon-checkbox" viewBox="0 0 20 20">
    <path d="M0 11l2-2 5 5 11-11 2 2-13 13z"></path>
</symbol>

<!-- clock -->
<symbol id="icon-clock" viewBox="0 0 24 24">
    <path d="M23 12c0-3.037-1.232-5.789-3.222-7.778s-4.741-3.222-7.778-3.222-5.789 1.232-7.778 3.222-3.222 4.741-3.222 7.778 1.232 5.789 3.222 7.778 4.741 3.222 7.778 3.222 5.789-1.232 7.778-3.222 3.222-4.741 3.222-7.778zM21 12c0 2.486-1.006 4.734-2.636 6.364s-3.878 2.636-6.364 2.636-4.734-1.006-6.364-2.636-2.636-3.878-2.636-6.364 1.006-4.734 2.636-6.364 3.878-2.636 6.364-2.636 4.734 1.006 6.364 2.636 2.636 3.878 2.636 6.364zM11 6v6c0 0.389 0.222 0.727 0.553 0.894l4 2c0.494 0.247 1.095 0.047 1.342-0.447s0.047-1.095-0.447-1.342l-3.448-1.723v-5.382c0-0.552-0.448-1-1-1s-1 0.448-1 1z"></path>
</symbol>

<!-- payments -->
<symbol id="icon-revolut" viewBox="0 0 32 32">
    <path stroke-linejoin="round" stroke-linecap="butt" stroke-miterlimit="4" stroke-width="3.122" d="M16.5 3.667c-2.236 0-4.927 0.325-6.346 0.522-0.587 0.081-1.038 0.549-1.111 1.137l-2.52 20.158c-0.192 1.539 0.966 2.945 2.515 2.893 1.318-0.044 2.457-0.2 3.489-0.52 0.842-0.261 1.377-1.045 1.496-1.918l0.81-5.938 2.365 6.57c0.381 1.058 1.386 1.782 2.509 1.715 1.708-0.102 3.018-0.382 4.631-0.997 0.784-0.299 1.044-1.26 0.612-1.979-1.643-2.732-2.256-5.107-3.117-7.976 0 0 3.667-2.333 3.667-6.333 0-6-5-7.333-9-7.333z"></path>
    <path d="M14.322 14.531l0.727-5.333c0.068-0.496 0.492-0.873 0.99-0.831 2.651 0.222 3.522 1.516 3.295 3.632-0.19 1.776-1.225 3.289-4.022 3.606-0.602 0.068-1.072-0.474-0.99-1.074z"></path>
</symbol>
</defs>
</svg>